<?xml version="1.0" standalone="no"?>
<!DOCTYPE svg PUBLIC "-//W3C//DTD SVG 1.1//EN" "http://www.w3.org/Graphics/SVG/1.1/DTD/svg11.dtd" >
<svg xmlns="http://www.w3.org/2000/svg">
<metadata>Generated by IcoMoon</metadata>
<defs>
<font id="icomoon" horiz-adv-x="1024">
<font-face units-per-em="1024" ascent="960" descent="-64" />
<missing-glyph horiz-adv-x="1024" />
<glyph unicode="&#x20;" horiz-adv-x="512" d="" />
<glyph unicode="&#xe900;" glyph-name="writers" d="M426.664 413.87c-9.434 0-17.060-7.648-17.060-17.070v-51.202h-119.474c-9.432 0-17.060-7.644-17.060-17.060 0-9.422 7.628-17.070 17.060-17.070h170.674c65.86 0 119.462-53.584 119.462-119.462 0-9.426 7.628-17.070 17.060-17.070 9.444 0 17.070 7.644 17.070 17.070 0 84.688-68.894 153.602-153.602 153.602h-17.060v34.132h17.060c9.442 0 17.070 7.644 17.070 17.070v102.392c0 9.422-7.628 17.070-17.070 17.070h-273.056c-9.442 0-17.070-7.648-17.070-17.070v-102.392c0-9.424 7.628-17.070 17.070-17.070h17.062v-34.142h-17.062c-84.704 0-153.602-68.914-153.602-153.592v-170.664c0-47.060 38.28-85.342 85.332-85.342h409.598c47.050 0 85.33 38.282 85.33 85.342v102.392c0 9.426-7.624 17.070-17.060 17.070h-477.868c-9.434 0-17.070-7.644-17.070-17.070 0-9.412 7.634-17.060 17.070-17.060h460.798v-85.332c0-28.232-22.968-51.2-51.2-51.2h-409.598c-28.232 0-51.202 22.968-51.202 51.2v170.664c0 65.878 53.604 119.462 119.464 119.462h34.14c9.432 0 17.060 7.648 17.060 17.070v51.202h119.472c9.432 0 17.060 7.644 17.060 17.060 0 9.422-7.628 17.070-17.060 17.070h-153.602v68.262h238.934v-68.262h-17.070zM989.864 567.472v238.926c0 84.688-68.898 153.602-153.602 153.602-84.698 0-153.594-68.914-153.594-153.602v-68.262c0-4.522 1.808-8.878 5-12.070l22.060-22.060-22.060-22.072c-3.192-3.192-5-7.528-5-12.070v-443.728c0-4.52 1.808-8.878 5-12.070l68.262-68.262c6.68-6.67 17.46-6.67 24.13 0 6.68 6.67 6.68 17.462 0 24.132l-63.262 63.26v156.544l102.402-102.402v-334.266c0-9.424 7.628-17.072 17.062-17.072 9.442 0 17.070 7.648 17.070 17.072v334.266l102.402 102.402v-156.544l-63.272-63.26c-6.67-6.67-6.67-17.462 0-24.132 3.33-3.33 7.696-5 12.070-5 4.364 0 8.74 1.67 12.060 5l68.272 68.262c3.192 3.192 5 7.55 5 12.070v273.066c0 4.52-1.818 8.876-5 12.070l-22.070 22.060 22.070 22.070c3.192 3.194 5 7.54 5 12.070v0zM819.2 335.598l-102.402 102.402v156.534l102.402-102.394v-156.542zM836.262 891.738c-9.434 0-17.062-7.646-17.062-17.070v-334.266l-102.402 102.402v20l29.132 29.13c3.192 3.194 5 7.55 5 12.072 0 4.52-1.808 8.858-5 12.060l-29.132 29.13v61.202c0 65.878 53.604 119.472 119.464 119.472 63.612 0 115.594-50.010 119.14-112.744l-102.070-102.060v163.602c0 9.424-7.628 17.070-17.070 17.070v0zM955.734 574.534l-29.132-29.112c-3.192-3.212-5-7.55-5-12.090 0-4.522 1.808-8.858 5-12.060l29.132-29.132v-54.14l-102.402-102.402v327.206l102.402 102.402v-190.672z" />
<glyph unicode="&#xe901;" glyph-name="it" d="M96 45.056v170.384l36.848 24.56h59.152v32h-68.848l-59.152-39.44v-187.504c-18.592-6.624-32-24.224-32-45.056 0-26.464 21.536-48 48-48s48 21.536 48 48c0 20.832-13.424 38.432-32 45.056zM80-16c-8.832 0-16 7.168-16 16s7.168 16 16 16 16-7.168 16-16-7.168-16-16-16zM109.056 304h82.944v32h-82.944c-6.624 18.576-24.224 32-45.056 32-26.464 0-48-21.536-48-48s21.536-48 48-48c20.832 0 38.432 13.424 45.056 32zM48 320c0 8.832 7.168 16 16 16s16-7.168 16-16-7.168-16-16-16-16 7.168-16 16zM64 400c20.832 0 38.432 13.424 45.056 32h82.944v32h-82.944c-6.624 18.592-24.224 32-45.056 32-26.464 0-48-21.536-48-48s21.536-48 48-48zM64 464c8.832 0 16-7.168 16-16s-7.168-16-16-16-16 7.168-16 16 7.168 16 16 16zM128 400h64v-32h-64v32zM128 528h64v-32h-64v32zM16 592h176v-32h-176v32zM137.376 624h54.624v32h-41.376l-38.624 38.624v28.32c18.576 6.624 32 24.224 32 45.056 0 26.464-21.536 48-48 48s-48-21.536-48-48c0-20.832 13.408-38.432 32-45.056v-41.568l57.376-57.376zM96 784c8.832 0 16-7.168 16-16s-7.168-16-16-16-16 7.168-16 16 7.168 16 16 16zM304 809.376v-41.376h32v54.624l-57.376 57.376h-262.624v-32h249.376zM368 873.376v-105.376h32v118.624l-57.376 57.376h-326.624v-32h313.376zM432 832h32v-64h-32v64zM624 944h32v-176h-32v176zM496 850.944v-82.944h32v57.376l32-32v-25.376h32v38.624l-51.216 51.216c11.6 8.768 19.216 22.528 19.216 38.16 0 26.464-21.536 48-48 48s-48-21.536-48-48c0-20.832 13.408-38.432 32-45.056zM512 912c8.832 0 16-7.168 16-16s-7.168-16-16-16-16 7.168-16 16 7.168 16 16 16zM720 841.376l38.624 38.624h156.32c4.832-13.552 15.504-24.224 29.056-29.056v-220.32l-38.624-38.624h-73.376v-32h86.624l57.376 57.376v233.568c18.576 6.624 32 24.224 32 45.056 0 26.464-21.536 48-48 48-20.832 0-38.432-13.424-45.056-32h-169.568l-57.376-57.376v-86.624h32v73.376zM960 912c8.832 0 16-7.168 16-16s-7.168-16-16-16-16 7.168-16 16 7.168 16 16 16zM844.16 749.216l35.84-35.84v-18.752l-38.624-38.624h-9.376v-32h22.624l57.376 57.376v45.248l-57.376 57.376h-9.568c-6.624 18.576-24.224 32-45.056 32-26.464 0-48-21.536-48-48s21.536-48 48-48c19.808 0 36.832 12.064 44.16 29.216zM800 752c-8.832 0-16 7.168-16 16s7.168 16 16 16 16-7.168 16-16-7.168-16-16-16zM832 528h176v-32h-176v32zM976 45.056v361.568l-57.376 57.376h-86.624v-32h73.376l38.624-38.624v-82.752l-25.376 25.376h-86.624v-32h73.376l38.624-38.624v-220.32c-18.592-6.624-32-24.224-32-45.056 0-26.464 21.536-48 48-48s48 21.536 48 48c0 20.832-13.424 38.432-32 45.056zM960-16c-8.832 0-16 7.168-16 16s7.168 16 16 16 16-7.168 16-16-7.168-16-16-16zM832 400h64v-32h-64v32zM912 41.376v173.248l-57.376 57.376h-22.624v-32h9.376l38.624-38.624v-89.376h-160v16h-32v-48h192v-25.376l-38.624-38.624h-28.32c-6.624 18.576-24.224 32-45.056 32-26.464 0-48-21.536-48-48s21.536-48 48-48c20.832 0 38.432 13.424 45.056 32h41.568l57.376 57.376zM768-16c-8.832 0-16 7.168-16 16s7.168 16 16 16 16-7.168 16-16-7.168-16-16-16zM336 80v48h-32v-16h-82.944c-6.624 18.576-24.224 32-45.056 32-26.464 0-48-21.536-48-48s21.536-48 48-48c20.832 0 38.432 13.424 45.056 32h114.944zM176 80c-8.832 0-16 7.168-16 16s7.168 16 16 16 16-7.168 16-16-7.168-16-16-16zM624 128h32v-176h-32v176zM560 128h32v-176h-32v176zM496 102.624l-32-32v57.376h-32v-82.944c-18.592-6.624-32-24.224-32-45.056 0-26.464 21.536-48 48-48s48 21.536 48 48c0 15.632-7.616 29.392-19.216 38.16l51.216 51.216v38.624h-32v-25.376zM448-16c-8.832 0-16 7.168-16 16s7.168 16 16 16 16-7.168 16-16-7.168-16-16-16zM400 128h-32v-41.376l-48-48v-86.624h32v73.376l48 48zM688 192v-32h32v32h48v48h32v32h-32v32h32v32h-32v32h32v32h-32v32h32v32h-32v32h32v32h-32v32h32v32h-32v32h32v32h-32v48h-48v32h-32v-32h-32v32h-32v-32h-32v32h-32v-32h-32v32h-32v-32h-32v32h-32v-32h-32v32h-32v-32h-32v32h-32v-32h-6.624l-41.376-41.376v-6.624h-32v-32h32v-32h-32v-32h32v-32h-32v-32h32v-32h-32v-32h32v-32h-32v-32h32v-32h-32v-32h32v-32h-32v-32h32v-48h48v-32h32v32h32v-32h32v32h32v-32h32v32h32v-32h32v32h32v-32h32v32h32v-32h32v32h32zM288 649.376l22.624 22.624h425.376v-448h-448v425.376zM653.776 521.904l27.92 27.92-67.872 67.872-27.92-27.92c-8.32 4.368-16.976 7.952-25.904 10.768v39.456h-96v-39.456c-8.944-2.816-17.6-6.4-25.904-10.768l-27.92 27.92-67.872-67.872 27.92-27.92c-4.352-8.32-7.952-16.976-10.768-25.904h-39.456v-96h39.456c2.816-8.944 6.4-17.6 10.768-25.904l-27.92-27.92 67.872-67.872 27.92 27.92c8.32-4.352 16.96-7.952 25.904-10.768v-39.456h96v39.456c8.944 2.816 17.6 6.4 25.904 10.768l27.92-27.92 67.872 67.872-27.92 27.92c4.352 8.304 7.952 16.96 10.768 25.904h39.456v96h-39.456c-2.816 8.944-6.4 17.6-10.768 25.904zM672 432h-32.448l-2.832-12.448c-3.2-14.032-8.736-27.344-16.432-39.584l-6.816-10.816 22.992-22.992-22.624-22.624-22.992 22.992-10.816-6.816c-12.24-7.696-25.552-13.232-39.584-16.432l-12.448-2.832v-32.448h-32v32.448l-12.448 2.832c-14.032 3.2-27.344 8.736-39.584 16.432l-10.816 6.816-22.992-22.992-22.624 22.624 22.992 22.992-6.816 10.816c-7.696 12.24-13.232 25.552-16.432 39.584l-2.832 12.448h-32.448v32h32.448l2.832 12.448c3.2 14.032 8.736 27.344 16.432 39.584l6.816 10.816-22.992 22.992 22.624 22.624 22.992-22.976 10.816 6.816c12.24 7.696 25.552 13.232 39.584 16.432l12.448 2.816v32.448h32v-32.448l12.448-2.832c14.032-3.2 27.344-8.736 39.584-16.432l10.816-6.816 22.992 22.976 22.624-22.624-22.992-22.992 6.816-10.816c7.696-12.24 13.232-25.552 16.432-39.584l2.832-12.432h32.448v-32zM512 528c-44.112 0-80-35.888-80-80s35.888-80 80-80 80 35.888 80 80-35.888 80-80 80zM512 400c-26.464 0-48 21.536-48 48s21.536 48 48 48 48-21.536 48-48-21.536-48-48-48z" />
<glyph unicode="&#xe902;" glyph-name="social-media" d="M162.91 337.454c-89.972 0-162.91-72.938-162.91-162.908 0-89.972 72.938-162.91 162.91-162.91s162.908 72.938 162.908 162.91c0 89.972-72.938 162.908-162.908 162.908zM162.91 46.544c-70.574 0-128 57.424-128 128 0 70.574 57.424 128 128 128s128-57.424 128-128c-0.002-70.572-57.426-128-128-128zM512 267.638c-89.972 0-162.908-72.938-162.908-162.91s72.938-162.908 162.908-162.908c89.972 0 162.91 72.938 162.91 162.908s-72.938 162.91-162.91 162.91zM512-23.274c-70.574 0-128 57.424-128 128 0 70.574 57.424 128 128 128s128-57.424 128-128c0-70.574-57.424-128-128-128zM512 395.636c154.252 0 279.272 125.022 279.272 279.272 0 154.228-125.022 279.272-279.272 279.272s-279.274-125.042-279.274-279.272c0-154.25 125.022-279.272 279.274-279.272zM512 919.274c134.748 0 244.364-109.626 244.364-244.364s-109.612-244.366-244.364-244.366-244.364 109.628-244.364 244.364 109.614 244.366 244.364 244.366zM861.090 337.454c-89.972 0-162.908-72.938-162.908-162.908 0-89.972 72.938-162.91 162.908-162.91 89.972 0 162.91 72.938 162.91 162.91s-72.938 162.908-162.91 162.908zM861.090 46.544c-70.574 0-128 57.424-128 128 0 70.574 57.424 128 128 128 70.574 0 128-57.424 128-128 0-70.572-57.424-128-128-128zM372.98 535.274h278.052c4.596 0 9.088 1.86 12.346 5.108s5.108 7.748 5.108 12.346c-0.012 64.454-38.994 116.516-94.626 138.844 20.086 17.36 32.838 42.962 32.838 71.598-0.012 52.294-42.392 94.674-94.698 94.684-52.306-0.012-94.684-42.392-94.698-94.684 0-28.638 12.764-54.236 32.838-71.598-55.632-22.33-94.616-74.39-94.626-138.844 0-4.596 1.862-9.088 5.108-12.346 3.246-3.26 7.75-5.108 12.358-5.108zM469.724 720.896c-10.846 10.88-17.5 25.706-17.514 42.274 0.012 16.558 6.668 31.382 17.514 42.264 10.868 10.856 25.706 17.5 42.274 17.514 16.558-0.012 31.396-6.656 42.274-17.514 10.846-10.88 17.5-25.706 17.514-42.264-0.012-16.57-6.668-31.396-17.514-42.274-10.878-10.856-25.716-17.5-42.274-17.514-16.568 0.014-31.404 6.668-42.274 17.514zM426.042 632.88c22.050 22.028 52.33 35.596 85.958 35.608 33.618-0.012 63.906-13.58 85.958-35.608 18.014-18.036 30.22-37.76 34.14-62.696h-240.182c3.918 24.934 16.112 44.66 34.126 62.696zM530.146 302.43c0-9.64-7.814-17.454-17.454-17.454s-17.454 7.814-17.454 17.454c0 9.64 7.814 17.454 17.454 17.454s17.454-7.814 17.454-17.454zM530.146 360.62c0-9.64-7.814-17.454-17.454-17.454s-17.454 7.814-17.454 17.454c0 9.64 7.814 17.454 17.454 17.454s17.454-7.814 17.454-17.454zM773.526 331.326c0-9.64-7.814-17.454-17.454-17.454s-17.454 7.814-17.454 17.454c0 9.64 7.814 17.454 17.454 17.454s17.454-7.814 17.454-17.454zM736.12 375.904c0-9.64-7.814-17.454-17.454-17.454s-17.454 7.814-17.454 17.454c0 9.64 7.814 17.454 17.454 17.454s17.454-7.814 17.454-17.454zM698.736 420.462c0-9.64-7.814-17.454-17.454-17.454s-17.454 7.814-17.454 17.454c0 9.64 7.814 17.454 17.454 17.454s17.454-7.814 17.454-17.454zM286.638 329.988c0-9.64-7.814-17.454-17.454-17.454s-17.454 7.814-17.454 17.454c0 9.64 7.814 17.454 17.454 17.454s17.454-7.814 17.454-17.454zM324.024 374.546c0-9.64-7.814-17.454-17.454-17.454s-17.454 7.814-17.454 17.454c0 9.64 7.814 17.454 17.454 17.454s17.454-7.814 17.454-17.454zM361.43 419.124c0-9.64-7.814-17.454-17.454-17.454s-17.454 7.814-17.454 17.454c0 9.64 7.814 17.454 17.454 17.454s17.454-7.814 17.454-17.454zM912.546 176.42c-1.932 1.234-4.084 2.21-6.11 3.316 6.528 9.146 10.45 20.258 10.46 32.36-0.012 30.882-25.030 55.89-55.9 55.9-30.882-0.012-55.89-25.018-55.9-55.9 0.012-12.090 3.946-23.216 10.46-32.362-2.046-1.106-4.178-2.082-6.11-3.316-14.546-9.332-26.020-22.842-31.546-39.214-3.072-9.136 1.838-19.038 10.972-22.11 9.136-3.072 19.038 1.838 22.11 10.974 2.63 7.856 8.552 15.35 17.314 20.98 8.714 5.598 20.086 9.168 32.688 9.158 12.602 0.012 23.97-3.56 32.688-9.158 8.762-5.62 14.698-13.126 17.314-20.98 3.084-9.136 12.974-14.044 22.11-10.974 9.136 3.084 14.044 12.974 10.974 22.11-5.516 16.372-16.978 29.884-31.524 39.216zM861 191.116c-11.59 0.022-20.97 9.426-20.992 20.992 0.024 11.602 9.404 20.97 20.992 20.992 11.578-0.022 20.97-9.402 20.992-20.992-0.026-11.578-9.428-20.968-20.992-20.992zM563.816 106.602c-1.942 1.234-4.084 2.21-6.12 3.316 6.54 9.146 10.46 20.258 10.474 32.36-0.012 30.882-25.030 55.89-55.9 55.9-30.882-0.012-55.9-25.018-55.9-55.9 0-12.090 3.946-23.216 10.46-32.36-2.048-1.106-4.178-2.082-6.11-3.316-14.546-9.332-26.020-22.842-31.546-39.214-3.072-9.136 1.838-19.038 10.974-22.11s19.038 1.838 22.11 10.974c2.63 7.856 8.552 15.35 17.314 20.98 8.714 5.598 20.086 9.168 32.688 9.158 12.602 0.012 23.97-3.56 32.688-9.158 8.762-5.62 14.696-13.126 17.314-20.98 3.084-9.136 12.974-14.044 22.11-10.974 9.136 3.084 14.044 12.974 10.972 22.11-5.508 16.37-16.982 29.88-31.528 39.214zM512.268 121.296c-11.59 0.024-20.97 9.426-20.992 20.992 0.024 11.602 9.402 20.97 20.992 20.992 11.578-0.022 20.97-9.402 20.992-20.992-0.024-11.576-9.414-20.966-20.992-20.992zM214.726 176.42c-1.942 1.234-4.084 2.21-6.12 3.316 6.54 9.146 10.46 20.258 10.474 32.36-0.012 30.882-25.030 55.89-55.9 55.9-30.882-0.012-55.9-25.018-55.9-55.9 0-12.090 3.946-23.216 10.46-32.362-2.048-1.106-4.178-2.082-6.11-3.316-14.546-9.332-26.020-22.842-31.546-39.214-3.072-9.136 1.838-19.038 10.974-22.11s19.038 1.838 22.11 10.974c2.63 7.856 8.552 15.35 17.314 20.98 8.714 5.598 20.086 9.168 32.688 9.158 12.602 0.012 23.97-3.56 32.688-9.158 8.764-5.62 14.698-13.126 17.314-20.98 3.084-9.136 12.974-14.044 22.11-10.974 9.136 3.084 14.044 12.974 10.974 22.11-5.51 16.372-16.986 29.884-31.53 39.216zM163.176 191.116c-11.59 0.022-20.97 9.426-20.992 20.992 0.022 11.602 9.402 20.97 20.992 20.992 11.578-0.022 20.97-9.402 20.992-20.992-0.022-11.578-9.414-20.968-20.992-20.992z" />
<glyph unicode="&#xe903;" glyph-name="design" d="M811.214 865.372c-7.658 7.658-20.074 7.658-27.73 0l-131.99-131.994h-631.884c-10.828 0-19.608-8.778-19.608-19.608s8.78-19.608 19.608-19.608h592.668l-295.422-295.422h-297.246c-10.828 0-19.608-8.778-19.608-19.608 0-10.828 8.78-19.608 19.608-19.608h258.028l-42.258-42.258c-0.020-0.020-0.042-0.042-0.066-0.066l-0.034-0.034c-0.060-0.060-0.11-0.126-0.17-0.188-0.39-0.4-0.768-0.814-1.126-1.248-0.134-0.16-0.246-0.33-0.374-0.494-0.264-0.342-0.528-0.684-0.772-1.048-0.16-0.238-0.298-0.486-0.448-0.732-0.18-0.298-0.368-0.594-0.534-0.904-0.168-0.314-0.312-0.636-0.46-0.954-0.12-0.256-0.248-0.508-0.358-0.772-0.164-0.398-0.304-0.806-0.442-1.21-0.068-0.202-0.146-0.394-0.208-0.598-0.156-0.518-0.286-1.044-0.398-1.572-0.020-0.102-0.054-0.198-0.076-0.3l-0.012-0.060c-0.006-0.024-0.010-0.048-0.014-0.070l-48.58-242.912h-161.7c-10.828 0-19.608-8.778-19.608-19.608 0-10.828 8.78-19.608 19.608-19.608h177.668c0.028 0 0.058-0.002 0.088-0.002 0.008 0 0.014 0 0.020 0s0.012 0 0.020 0c0.028 0 0.058 0.002 0.088 0.002h15.352c5.232 0 9.972 2.062 13.488 5.402l85.698 17.14c0.012 0.002 0.024 0.006 0.036 0.008l0.078 0.016 147.766 29.552c0.018 0.002 0.036 0.008 0.058 0.010l0.068 0.014c0.114 0.024 0.222 0.060 0.338 0.086 0.512 0.112 1.024 0.236 1.53 0.386 0.214 0.066 0.418 0.15 0.63 0.22 0.394 0.136 0.792 0.27 1.178 0.428 0.274 0.114 0.536 0.248 0.802 0.374 0.308 0.144 0.62 0.282 0.922 0.444 0.318 0.17 0.62 0.36 0.926 0.546 0.238 0.144 0.48 0.28 0.71 0.434 0.364 0.244 0.708 0.51 1.054 0.774 0.162 0.126 0.332 0.238 0.492 0.372 0.428 0.354 0.834 0.726 1.232 1.114 0.066 0.066 0.138 0.118 0.202 0.182l0.040 0.040c0.020 0.020 0.042 0.040 0.060 0.060l548.102 548.1c7.658 7.658 7.658 20.072 0 27.73l-207.040 207.052zM725.204 392.996l-269.012-269.010-38.824 38.82 372.584 372.584 38.82-38.82-103.568-103.574zM222.38 69.492l9.232 46.152 36.92-36.92-46.152-9.232zM314.744 87.964l-73.892 73.892 20.334 101.674 155.236-155.232-101.678-20.334zM592.102 392.996l-202.46-202.46-46.216 46.216 372.584 372.584 46.216-46.216-170.124-170.124zM315.696 264.484l-38.822 38.824 61.962 61.962c0.002 0.002 0.006 0.006 0.008 0.006l310.618 310.618 38.82-38.824-372.586-372.586zM856.504 524.3l-179.314 179.316 120.16 120.16 179.316-179.316-120.162-120.16zM779.592 769.464l-47.058-47.058c-7.658-7.658-7.658-20.072 0-27.728 3.828-3.828 8.848-5.744 13.864-5.744s10.036 1.914 13.864 5.744l47.058 47.058c7.658 7.658 7.658 20.072 0 27.728-7.654 7.658-20.072 7.658-27.728 0z" />
<glyph unicode="&#xe904;" glyph-name="legal" d="M968.52 149.822h-18.658v18.648c0 28.442-23.138 51.578-51.58 51.578h-245.82c-28.43 0-51.566-23.136-51.566-51.578v-18.648h-18.658c-28.442 0-51.58-23.138-51.58-51.58v-35.12c0-9.098 7.374-16.46 16.46-16.46h456.506c9.1 0 16.46 7.364 16.46 16.46v35.12c0.002 28.442-23.134 51.58-51.564 51.58v0zM633.818 168.468c0 10.288 8.368 18.656 18.644 18.656h245.82c10.288 0 18.658-8.368 18.658-18.656v-18.648h-283.122v18.648zM987.164 79.584h-423.584v18.658c0 10.288 8.37 18.658 18.658 18.658h386.282c10.276 0 18.644-8.37 18.644-18.658v-18.658zM567.33 437.712l-0.782-0.77c-20.104-20.116-20.104-52.834 0-72.948 10.052-10.052 23.264-15.078 36.468-15.078 13.212 0 26.416 5.026 36.468 15.078l99.332 99.332c9.742 9.732 15.1 22.688 15.1 36.468 0 13.772-5.358 26.726-15.1 36.468s-22.696 15.11-36.48 15.11c-13.77 0-26.726-5.368-36.468-15.11l-0.77-0.77-29.396 29.396c3.278 11.498 0.416 24.412-8.626 33.446l-124.152 124.164c-9.046 9.046-21.948 11.906-33.448 8.618l-29.408 29.404 0.774 0.774c9.74 9.74 15.112 22.696 15.112 36.468 0 13.78-5.372 26.726-15.112 36.468-9.742 9.74-22.688 15.108-36.468 15.108-13.784 0-26.726-5.368-36.468-15.108l-99.322-99.324c-9.742-9.74-15.112-22.686-15.112-36.468 0-13.77 5.37-26.726 15.112-36.466 9.74-9.742 22.686-15.11 36.468-15.11 13.77 0 26.726 5.368 36.468 15.11l0.77 0.77 29.396-29.386c-0.87-3.024-1.342-6.184-1.342-9.41 0-9.086 3.548-17.63 9.968-24.058l13.194-13.194-62.852-62.852c-10.89-10.888-15.83-25.474-14.93-39.748l-296.7-296.714c-9.742-9.742-15.11-22.696-15.11-36.468 0-13.78 5.37-26.726 15.11-36.468 10.052-10.062 23.254-15.088 36.468-15.088 13.202 0 26.416 5.026 36.468 15.088l296.71 296.702c1.094-0.066 2.186-0.15 3.278-0.15 13.216 0 26.416 5.026 36.48 15.078l62.852 62.852 13.194-13.19c6.42-6.42 14.96-9.956 24.048-9.956 3.234 0 6.388 0.46 9.408 1.328l29.4-29.396zM702.338 518.452c4.984 0 9.668-1.94 13.194-5.464s5.464-8.208 5.464-13.194c0-4.982-1.94-9.666-5.464-13.19l-99.322-99.322c-7.278-7.278-19.108-7.278-26.386 0-7.276 7.264-7.276 19.106 0 26.384l12.422 12.408 86.91 86.912c3.518 3.526 8.212 5.466 13.182 5.466v0zM590.608 460.99l-26.386 26.384 51.214 51.214 26.386-26.384-51.214-51.214zM603.798 575.058c0.428-0.42 0.428-1.124 0-1.544l-74.502-74.502c-0.074-0.074-0.32-0.32-0.77-0.32s-0.696 0.246-0.774 0.32l-124.162 124.164c-0.076 0.074-0.324 0.32-0.324 0.77s0.248 0.696 0.324 0.782l74.49 74.494c0.214 0.214 0.504 0.322 0.782 0.322 0.28 0 0.558-0.106 0.77-0.322l124.166-124.164zM305.052 679.782c-4.984 0-9.668 1.94-13.194 5.464s-5.464 8.208-5.464 13.19c0 4.984 1.94 9.668 5.464 13.194l99.322 99.322c3.526 3.526 8.208 5.464 13.194 5.464 4.982 0 9.666-1.94 13.19-5.464 7.278-7.264 7.278-19.108 0-26.372l-99.32-99.332c-3.526-3.528-8.21-5.466-13.192-5.466v0zM416.782 737.242l26.384-26.384-51.214-51.214-26.384 26.384 51.214 51.214zM68.684 137.724c-7.276-7.278-19.104-7.278-26.384 0-3.526 3.526-5.464 8.208-5.464 13.19 0 4.984 1.94 9.668 5.464 13.194l287.614 287.614c0.258-0.268 0.482-0.546 0.74-0.814l24.828-24.83c0.258-0.258 0.548-0.482 0.814-0.728l-287.612-287.626zM405.146 449.352c-7.264-7.268-19.108-7.268-26.384 0l-24.82 24.828c-7.276 7.278-7.276 19.12 0 26.384l62.854 62.856 51.204-51.214-62.854-62.854z" />
<glyph unicode="&#xe905;" glyph-name="architects" d="M829.32-35.886l-2.5 6.12c-4.258 10.428-16.162 15.436-26.596 11.176-10.43-4.26-15.434-16.166-11.176-26.596l2.5-6.12c3.23-7.906 10.85-12.696 18.896-12.696 2.566 0 5.176 0.488 7.7 1.518 10.43 4.262 15.434 16.168 11.176 26.598zM804.342 25.31l-67.838 166.204h37.136c11.264 0 20.398 9.134 20.398 20.398s-9.134 20.398-20.398 20.398h-53.788l-133.126 326.156c13.31 16.484 21.302 37.43 21.302 60.218 0 45.95-32.45 84.446-75.63 93.828v30.904h10.524c11.264 0 20.398 9.134 20.398 20.398v175.788c0 11.264-9.134 20.398-20.398 20.398h-61.844c-11.264 0-20.398-9.134-20.398-20.398v-175.79c0-11.264 9.134-20.398 20.398-20.398h10.524v-30.904c-43.182-9.382-75.63-47.876-75.63-93.828 0-22.786 7.992-43.732 21.302-60.218l-133.124-326.152h-53.788c-11.264 0-20.398-9.134-20.398-20.398s9.134-20.398 20.398-20.398h37.138l-92.816-227.4c-4.258-10.43 0.746-22.338 11.176-26.596 2.524-1.030 5.134-1.518 7.7-1.518 8.042 0 15.668 4.79 18.896 12.696l99.112 242.82h133.432v-53.188c0-11.264 9.134-20.398 20.398-20.398h53.214c11.264 0 20.398 9.134 20.398 20.398v53.186h133.434l74.132-181.622c3.228-7.906 10.85-12.696 18.896-12.696 2.566 0 5.176 0.488 7.7 1.518 10.424 4.256 15.428 16.166 11.17 26.594zM501.474 919.204h21.046v-134.994h-21.046v134.994zM511.998 673.918c30.456 0 55.232-24.776 55.232-55.232s-24.776-55.232-55.232-55.232-55.232 24.776-55.232 55.232c0 30.456 24.778 55.232 55.232 55.232zM518.208 158.726h-12.418v110.464h12.418v-110.464zM559.004 232.312v57.276c0 11.264-9.134 20.398-20.398 20.398h-53.214c-11.264 0-20.398-9.134-20.398-20.398v-57.276h-116.78l122.35 299.754c12.55-6.030 26.606-9.412 41.438-9.412s28.884 3.384 41.438 9.412l122.35-299.754h-116.786z" />
<glyph unicode="&#xe906;" glyph-name="art" d="M310.742 666.938c33.304 0 60.398 27.094 60.398 60.398 0 33.306-27.094 60.4-60.398 60.4s-60.398-27.094-60.398-60.4c0-33.304 27.094-60.398 60.398-60.398zM310.742 757.742c16.764 0 30.402-13.638 30.402-30.404 0-16.764-13.638-30.402-30.402-30.402s-30.402 13.638-30.402 30.402c0 16.764 13.638 30.404 30.402 30.404zM183.44 526.358c40.188 0 72.884 32.696 72.884 72.884s-32.698 72.884-72.884 72.884c-40.188 0-72.884-32.696-72.884-72.884 0-40.19 32.696-72.884 72.884-72.884zM183.44 642.128c23.648 0 42.888-19.24 42.888-42.888s-19.24-42.888-42.888-42.888-42.888 19.24-42.888 42.888 19.24 42.888 42.888 42.888zM382.066 294.3c0 40.188-32.698 72.884-72.884 72.884s-72.884-32.698-72.884-72.884 32.698-72.884 72.884-72.884 72.884 32.696 72.884 72.884zM309.184 251.41c-23.648 0-42.888 19.24-42.888 42.888s19.24 42.888 42.888 42.888 42.888-19.24 42.888-42.888c-0.002-23.65-19.24-42.888-42.888-42.888zM169.244 492.394c-40.596 0-73.624-33.028-73.624-73.624s33.030-73.624 73.624-73.624 73.624 33.030 73.624 73.624c0.002 40.598-33.028 73.624-73.624 73.624zM169.244 375.142c-24.056 0-43.628 19.572-43.628 43.628s19.572 43.628 43.628 43.628 43.628-19.572 43.628-43.628c0.002-24.056-19.57-43.628-43.628-43.628zM1009.186 688.796c-29.638 29.638-70.754 8.278-88.362-7.156l-171.088-150.114c-10.386 66.432-43.904 81.442-72.014 81.442-32.752 0-64.684-21.564-73.82-28.27l-61.456-46.114c-34.046-25.55-82.548-15.928-104.468 20.412-19.034 31.57-11.11 72.092 18.428 94.256l61.584 46.212c88.762 68.106 62.678 158.79-99.022 178.066-195.616 23.55-385.598-113.74-415.124-320.752-30.534-214.096 124.508-407.706 337.088-427.804-7.808-31.272-6.072-64.33 6.34-94.030 1.522-3.64 4.416-6.534 8.054-8.054 91.626-38.292 208.77 28.166 201.684 120.95 4.492 0.79-1.632-2.704 89.118 58.686 31.298-14.76 66.604 18.326 54.592 50.51l212.718 242.436c5.462 6.226 4.844 15.702-1.382 21.164s-15.702 4.846-21.164-1.382l-209.158-238.378-80.478 80.476c6.62 5.808 323.638 283.96 339.28 297.684 0.302 0.258 30.352 25.636 47.436 8.552 17.080-17.080-8.298-47.14-8.492-47.37l-56.48-64.37c-5.462-6.226-4.844-15.702 1.382-21.164 6.224-5.462 15.704-4.846 21.164 1.382l56.496 64.388c15.408 17.612 36.732 58.748 7.144 88.342zM351.116 158.194c-199.374 14.636-346.026 194.88-317.576 394.346 25.634 179.738 182.794 303.4 354.83 297.212 78.736-2.724 144.184-31.19 149.65-63.636 4.856-28.81-33.864-59.454-38.164-62.756l-61.456-46.116c-48.41-36.328-54.632-105.906-13.654-150.338 34.416-37.312 92.988-44.372 135.702-12.314l61.326 46.018c14.058 10.316 37.146 22.362 55.948 22.362 26.176 0 41.144-25.41 44.54-75.55l-144.808-127.054c-31.786 11.874-65.29-23.266-50.562-54.648-59.594-88.1-57.804-84.168-58.678-89.018-52.504 4.008-94.986-31.196-117.098-78.508zM503.922 84.684c-34.936-34.94-86.502-48.224-131.212-32.368-23.17 65.542 21.218 154.684 87.688 154.684 18.3 0 35.234-6.854 47.686-19.306 27.254-27.252 25.386-73.464-4.162-103.010zM556.26 181.938c-23.090 23.092-32.634 32.636-53.932 53.936l44.89 66.36 75.402-75.406-66.36-44.89zM667.818 235.19c-2.972-2.976-8.16-2.976-11.136 0.004l-101.1 101.102c-3.072 3.072-3.072 8.068 0 11.14l3.012 3.012c2.976 2.982 8.164 2.978 11.14 0 109.562-109.56 103.408-101.97 103.408-106.668 0.002-3.922-2.36-5.626-5.324-8.59z" />
<glyph unicode="&#xe907;" glyph-name="consultancy" d="M675.706-55.914h-32.336v245.76c0 32.69 26.596 59.284 59.284 59.284h132.356v188.972c0 41.864 29.984 74.864 82.268 90.534 39.074 11.712 85.33 21.322 87.28 21.726l19.442 4.024v-354.032c0-56.462-45.938-102.4-102.4-102.4h-150.558l-19.746-153.87h-32.072l23.368 186.206h179.006c38.634 0 70.064 31.432 70.064 70.062v314.076c-17.080-3.886-42.632-10.032-65.102-16.766-22.114-6.63-59.216-23.182-59.216-59.56v-221.308h-164.694c-14.86 0-26.948-12.088-26.948-26.948v-245.76h0.004zM925.91 554.974h-89.466v53.894h-45.164l45.228 103.774c1.854 50.082 43.176 90.248 93.704 90.248h0.018c51.702 0 93.768-42.064 93.768-93.768v-56.060c0.002-54.086-44-98.088-98.088-98.088zM868.782 587.31h57.128c36.254 0 65.752 29.496 65.752 65.752v56.060c0 33.874-27.558 61.432-61.432 61.432h-0.018c-33.874 0-61.432-27.558-61.432-61.432v-3.37l-28.134-64.544h28.134v-53.898zM380.632-55.914h-32.336v245.76c0 14.86-12.088 26.948-26.948 26.948h-164.694v221.308c0 36.38-37.102 52.932-59.216 59.56-22.488 6.74-48.032 12.884-65.102 16.766v-314.074c0-38.632 31.43-70.064 70.064-70.064h179.008l23.368-186.206h-32.072l-19.748 153.87h-150.558c-56.462 0-102.4 45.938-102.4 102.4v354.032l19.446-4.022c1.948-0.404 48.206-10.014 87.28-21.726 52.282-15.672 82.268-48.672 82.268-90.534v-188.972h132.356c32.688 0 59.284-26.594 59.284-59.284v-245.762zM187.552 554.974h-89.466c-54.086 0-98.086 44.002-98.086 98.088v56.060c0 51.704 42.066 93.768 93.768 93.768h0.018c50.528 0 91.848-40.166 93.704-90.248l45.228-103.774h-45.164v-53.894zM93.768 770.554c-33.874 0-61.432-27.558-61.432-61.432v-56.060c0-36.256 29.498-65.752 65.752-65.752h57.128v53.896h28.134l-28.134 64.546v3.37c0 33.874-27.558 61.432-61.432 61.432h-0.016zM781.472 412.97h-538.946v-97.010h226.894v-371.874h32.336v371.874h32.336v-371.874h32.336v371.874h215.042v97.010zM749.136 348.296h-474.274v32.336h474.274v-32.336zM730.812 783.606v82.080h-90.544v86.232h-377.262v-82.080l-78.366-95.774h78.366v-70.064h67.548v32.336h-35.21v70.064h-42.46l42.46 51.892v61.286h312.59v-53.894h-254.386v-247.916h377.264v70.064h78.366l-78.366 95.774zM698.474 720.17v-70.064h-312.588v53.894h254.384v108.582h-32.336v-76.246h-222.048v97.010h312.59v-61.286l42.46-51.892h-42.462zM618.71 497.046h-32.336v32.336h32.336v-32.336zM528.168 497.046h-32.336v32.336h32.336v-32.336zM437.624 497.046h-32.336v32.336h32.336v-32.336z" />
<glyph unicode="&#xe908;" glyph-name="tutoring" d="M880.18 6.016c-0.108 0.774 1.868-9.306-43.848 220.34-7.008 35.114-28.754 60.558-61.4 74.188-4.508 1.854 8.326-2.076-130.946 39.004l-39.436 26.668v24.674c63.764 33.198 106.87 99.86 106.87 176.46v2.772c32.648 6.032 57.222 31.33 57.222 61.544 0 12.51-4.23 24.17-11.484 33.976 0.086 1.19 0.030 7.918 0.056 49.714-0.002 134.9-109.746 244.646-244.642 244.646-67.512 0-130.37-26.904-176.996-75.752-5.72-5.994-5.498-15.49 0.494-21.21 5.994-5.718 15.49-5.5 21.21 0.494 40.908 42.86 96.060 66.466 155.292 66.466 118.352 0 214.64-96.288 214.64-214.64v-26.796c-4.98 2.054-10.268 3.624-15.792 4.644-1.278 6.44 7.724 45.898-28.796 64.73-154.106 79.464-289.004 28.314-339.848 2.63-17.924-9.052-29.056-27.176-29.056-47.296v-20.066c-5.522-1.020-10.81-2.592-15.792-4.644 1.324 16.766-6.39 63.006 21.38 120.29 3.614 7.456 0.498 16.43-6.956 20.044-7.458 3.612-16.43 0.498-20.042-6.956-16.18-33.378-24.384-69.238-24.384-106.58 0.020-34.352-0.032-48.524 0.056-49.718-7.254-9.806-11.484-21.466-11.484-33.974 0-30.212 24.574-55.512 57.22-61.544v-0.158c0-72.602 39.554-142.014 105.734-177.884v-26.226l-38.484-26.026c-139.352-41.108-127.522-37.442-132.092-39.366-20.438-8.452-52.128-28.636-61.208-74.116-45.658-229.342-43.736-219.54-43.848-220.332-5.742-40.546 15.678-70.016 60.814-70.016h370.256c8.286 0 15 6.714 15 15s-6.714 15-15 15h-264.49v141.26c0.092 5.938 0.832 99.574-41.896 168.112l84.092 24.804c77.586-199.678 245.656-201.888 324.436-1.658 6.54-1.928-26.16 7.716 78.464-23.146-42.728-68.538-41.99-162.174-41.896-168.112v-141.26h-68.708c-8.286 0-15-6.714-15-15s6.714-15 15-15h174.472c44.992 0 66.58 29.318 60.816 70.016zM496.444 181.454l2.134 15.546h27.158l2.282-16.624c-11.058-1.68-21.212-1.208-31.574 1.078zM528.646 227.004h-33.292l-10.018 23.164 26.664 19.75 26.664-19.75-10.018-23.164zM562.742 270.070l-26.788 19.87c14.582 13.1 44.954 40.386 54.902 49.324l23.452-15.858c-13.194-13.646-38.348-39.664-51.566-53.336zM711.418 600.898v61.536c36.234-10.768 36.204-50.776 0-61.536zM313.718 662.434v-61.536c-36.222 10.766-36.208 50.774 0 61.536zM343.72 569.966c0 33.034 0 110.132 0 143.304 0 8.734 4.82 16.598 12.58 20.518 94.252 47.604 208.274 51.266 312.57-2.518 7.738-3.99 12.544-11.85 12.544-20.512 0-20.010 0-123.1 0-143.408 0-146.732-176.882-224.714-284.288-122.206-33.938 32.398-53.406 77.894-53.406 124.822zM574.546 378.294v-13.35l-62.278-55.952-62.814 56.432v13.236c38.736-12.946 83.292-13.986 125.092-0.366zM433.682 339.262c1.95-1.752 9.674-8.692 54.904-49.326l-26.792-19.87-51.562 53.332 23.45 15.864zM280.398 107.39v-141.384c-65.032 1.902-90.006-5.050-101.702 8.42-6.862 7.902-6 21.226-5.224 26.998l43.62 219.060c3.946 19.772 14.008 32.768 24.54 41.234 27.166-42.070 38.766-105.78 38.766-154.328zM381.486 308.706l0.95 0.28 20.32-21.018c46.712-46.568 46.326-52.058 56.356-52.748l10.954-25.33-2.34-17.036c-33.806 19.59-64.104 59.804-86.24 115.852zM557 189.862l-2.826 20.586 10.706 24.756c0.002 0 0.004 0 0.004 0 1.086 0.036 1.922 0.156 2.864 0.372 0.954 0.22 1.848 0.52 2.694 0.892 0.848 0.374 1.74 0.872 2.5 1.4 0.482 0.336 1.47 1.104 2.224 1.884l66.814 69.11 6.152-1.814c-23.29-58.176-55.458-99.072-91.132-117.186zM845.304-25.578c-11.718-13.496-36.9-6.524-101.702-8.42 0 172.27 0.106 136.72-0.002 141.654-0.018 0.974-1.152 92.3 38.77 154.060 10.53-8.466 20.594-21.464 24.538-41.228l43.618-219.070c0.776-5.77 1.64-19.092-5.222-26.996z" />
<glyph unicode="&#xe909;" glyph-name="translation" d="M202.868 267.942c2.44-1.018 4.986-1.488 7.476-1.488 7.654 0 14.926 4.524 18.040 12.038l25.882 62.382h97.482l26.66-62.548c4.22-9.93 15.686-14.544 25.616-10.31 9.916 4.22 14.532 15.7 10.31 25.616l-31.644 74.244c-0.036 0.088-0.062 0.176-0.114 0.254l-62.508 146.706c-3.062 7.208-10.132 11.872-17.952 11.872h-0.1c-7.856-0.036-14.926-4.778-17.938-12.038l-60.804-146.592c-0.026-0.062-0.052-0.114-0.078-0.176l-30.878-74.436c-4.132-9.966 0.596-21.394 10.55-25.524v0zM302.346 456.802l32.76-76.874h-64.644l31.884 76.874zM303.248 684.616c-10.778-0.052-19.474-8.848-19.426-19.628 0.066-10.756 8.796-19.426 19.526-19.426h0.104c67.212 0.332 129.848-25.376 176.198-72.438 45.196-45.904 69.362-106.8 68.028-171.482-1.666-80.994-38.952-153.494-102.276-198.904-0.7-0.498-1.348-1.032-1.946-1.592l-2.77-1.908c-0.686-0.468-1.386-0.954-2.278-1.55l-183.878-125.704v74.674c0 8.836-5.936 16.566-14.466 18.854-106.584 28.564-181.030 125.502-181.030 235.722 0 85.824 43.936 163.792 117.53 208.554 9.204 5.604 12.142 17.62 6.536 26.836s-17.62 12.14-26.836 6.536c-85.33-51.91-136.282-142.348-136.282-241.926 0-122.82 79.66-231.414 195.496-269.142v-97.1c0-7.248 4.006-13.896 10.414-17.278 2.858-1.5 5.984-2.25 9.112-2.25 3.866 0 7.716 1.142 11.022 3.404l214.224 146.452c0.878 0.586 1.742 1.184 2.606 1.78l5.314 3.626c0.992 0.686 1.908 1.448 2.746 2.274 71.748 52.746 113.906 135.594 115.802 227.84 1.562 75.282-26.596 146.208-79.254 199.678-53.784 54.642-126.286 84.404-204.216 84.098v0zM720.648 880.536c-156.25 0-283.38-127.13-283.38-283.38 0-89.804 43.236-174.866 115.828-228.234 0.826-0.826 1.742-1.588 2.746-2.274l5.21-3.56c0.892-0.624 1.78-1.234 2.506-1.716l214.416-146.592c3.316-2.264 7.156-3.408 11.020-3.408 3.128 0 6.256 0.748 9.116 2.262 6.408 3.382 10.412 10.030 10.412 17.266v111.668c0 10.782-8.732 19.528-19.526 19.528-10.778 0-19.526-8.746-19.526-19.528v-74.662l-184.054 125.832c-0.738 0.482-1.464 0.992-2.188 1.488l-2.682 1.828c-0.598 0.572-1.246 1.106-1.934 1.604-64.048 45.918-102.288 120.124-102.288 198.498 0 134.716 109.612 244.328 244.328 244.328 134.72 0 244.318-109.61 244.318-244.328 0-68.156-27.436-131.374-77.246-177.994-7.87-7.372-8.29-19.728-0.914-27.598 7.362-7.87 19.728-8.29 27.598-0.914 56.954 53.306 89.616 128.566 89.616 206.506-0.006 156.25-127.122 283.38-283.376 283.38v0zM588.334 510.808c-10.792 0-19.526-8.744-19.526-19.526 0-10.778 8.734-19.526 19.526-19.526h165.89c10.778 0 19.526 8.748 19.526 19.526 0 10.782-8.748 19.526-19.526 19.526h-63.426v17.698h63.426c10.778 0 19.526 8.744 19.526 19.526 0 10.778-8.748 19.526-19.526 19.526h-63.426v39.526h32.598l6.294-12.588c3.416-6.838 10.31-10.792 17.48-10.792 2.936 0 5.91 0.66 8.718 2.074 9.636 4.816 13.552 16.54 8.734 26.188l-26.036 52.072c-4.816 9.646-16.552 13.562-26.202 8.732-9.65-4.816-13.552-16.552-8.732-26.202l0.214-0.43h-76.38l29.456 48.258h101.64c10.792 0 19.526 8.744 19.526 19.526 0 10.792-8.734 19.526-19.526 19.526h-163.704c-10.782 0-19.526-8.734-19.526-19.526 0-10.782 8.744-19.526 19.526-19.526h16.308l-35.162-57.604c-3.674-6.024-3.814-13.574-0.358-19.728 3.46-6.168 9.968-9.978 17.024-9.978h59.062v-39.526h-63.424c-10.778 0-19.526-8.748-19.526-19.526 0-10.782 8.748-19.526 19.526-19.526h63.424v-17.698h-63.418zM804.424 513.226c10.782 0 19.528 8.744 19.528 19.526v157.168c0 10.778-8.746 19.526-19.528 19.526-10.792 0-19.526-8.748-19.526-19.526v-157.168c0-10.782 8.748-19.526 19.526-19.526v0zM786.196 417.078h2.248c52.592 0 95.386 42.79 95.386 95.396v200.112c0 10.782-8.734 19.526-19.526 19.526-10.782 0-19.526-8.744-19.526-19.526v-200.112c0-31.070-25.274-56.342-56.332-56.342h-2.248c-10.782 0-19.526-8.748-19.526-19.526-0.002-10.782 8.742-19.528 19.524-19.528v0z" />
<glyph unicode="&#xe90a;" glyph-name="specialized-translation" d="M488.728 192v69.818c12.846 0 23.272 10.404 23.272 23.272 0 12.87-10.426 23.272-23.272 23.272v162.91h23.272c12.846 0 23.272 10.402 23.272 23.272s-10.426 23.272-23.272 23.272h-23.272v162.91h163.91c2.328-9.146 4.492-18.478 6.47-27.998 2.584-12.568 14.894-20.642 27.532-18.014 12.59 2.606 20.666 14.964 18.014 27.532-1.326 6.306-2.862 12.358-4.306 18.502h140.242c8.238-16.616 15.662-33.746 21.736-51.666 4.142-12.148 17.362-18.734 29.534-14.568 12.148 4.142 18.688 17.338 14.568 29.534-64.094 188.952-241.292 315.95-440.972 315.95-256.654 0.002-465.456-208.8-465.456-465.452 0-230.306 164.84-423.634 391.982-459.66 1.21-0.21 2.42-0.302 3.654-0.302 5.492 0 10.868 1.954 15.104 5.562 5.19 4.422 8.168 10.892 8.168 17.688v14.732c0 8.216-4.306 15.826-11.358 19.992-46.662 27.858-87.808 88.786-115.34 169.24h149.97v-69.818c0-12.87 10.426-23.272 23.272-23.272s23.276 10.422 23.276 23.292zM442.182 517.818h-185.576c1.676 57.926 9.496 113.082 22.272 162.91h163.304v-162.91zM488.728 727.274v116.364c0 12.87-10.426 23.272-23.272 23.272s-23.272-10.402-23.272-23.272v-116.364h-149.69c38.098 111.406 102.098 186.182 172.962 186.182 69.144 0 134.446-72.402 173.288-186.206l-150.016 0.024zM813.638 727.25h-125.79c-21.224 68.026-51.292 123.672-86.97 163.584 86.714-29.602 161.606-87.040 212.76-163.584zM329.426 890.346c-35.91-40.286-65.628-96.162-86.482-163.072h-56.762c-12.846 0-23.272-10.402-23.272-23.272s10.426-23.272 23.272-23.272h43.962c-11.706-50.060-18.548-104.984-20.062-162.91h-162.35c9.566 173.102 124.392 318.276 281.694 372.526zM329.96 97.886c-88.996 30.022-163.096 88.482-213.272 163.934h126.558c21.226-67.818 50.898-123.906 86.714-163.934zM89.762 308.364c-24.436 49.64-39.144 104.75-42.286 162.91h162.792c0.884-32.652 3.072-65.048 7.564-96.396 1.652-11.614 11.614-19.968 22.994-19.968 1.094 0 2.21 0.070 3.328 0.232 12.73 1.816 21.574 13.614 19.736 26.344-4.166 29.184-6.238 59.368-7.098 89.786h185.39v-162.91h-352.42zM814.522 424.728c0-12.853-10.419-23.272-23.272-23.272s-23.272 10.419-23.272 23.272c0 12.853 10.419 23.272 23.272 23.272s23.272-10.419 23.272-23.272zM721.43 424.728c0-12.853-10.419-23.272-23.272-23.272s-23.272 10.419-23.272 23.272c0 12.853 10.419 23.272 23.272 23.272s23.272-10.419 23.272-23.272zM791.25 587.636h-93.090c-64.164 0-116.364-52.2-116.364-116.456l0.024-6.144c-13.918-8.076-23.296-23.11-23.296-40.308v-23.272c0-20.526 13.358-38.004 31.838-44.148 0.418-2.63 0.86-5.26 1.396-7.866l4.282-21.342c7.308-36.77 28.556-68.468 59.742-89.25 23.134-15.406 50.036-23.576 77.8-23.576h22.226c27.764 0 54.69 8.168 77.8 23.576 31.208 20.76 52.41 52.456 59.764 89.228l4.282 21.342c0.512 2.606 0.978 5.26 1.396 7.89 18.478 6.168 31.836 23.646 31.836 44.148v23.272c0 17.198-9.356 32.256-23.272 40.286v6.26c0 64.16-52.202 116.36-116.364 116.36zM878.452 401.456c-11.52 0-21.318-8.424-23.016-19.852l-1.164-8.424c-0.628-4.888-1.28-9.752-2.258-14.616l-4.282-21.364c-4.91-24.6-19.084-45.778-39.936-59.624-15.43-10.31-33.42-15.756-51.968-15.756h-22.226c-18.572 0-36.538 5.446-52.014 15.756-20.852 13.894-35.002 35.048-39.912 59.624l-4.282 21.388c-1 5.004-1.652 10.030-2.328 15.034l-1.094 7.912c-1.652 11.45-11.474 19.922-23.016 19.922h-5.888l0.092 23.272c12.87 0 23.272 10.402 23.272 23.272l-0.094 23.272c0 38.494 31.326 69.818 69.818 69.818h93.090c38.494 0 69.818-31.326 69.818-69.818l0.022-20.642c-0.046-0.558-0.116-2.072-0.116-2.63 0-12.87 10.402-23.272 23.272-23.272l0.094-23.272h-5.884zM767.976 354.91h-46.546c-12.87 0-23.272-10.404-23.272-23.272 0-12.87 10.402-23.272 23.272-23.272h46.546c12.87 0 23.272 10.404 23.272 23.272 0.002 12.868-10.402 23.272-23.272 23.272zM935.842 139.124l-115.688 28.904c-1.838 0.466-3.724 0.698-5.632 0.698h-139.636c-1.908 0-3.794-0.232-5.632-0.698l-115.666-28.904c-51.898-12.986-88.134-59.392-88.134-112.896v-66.956c0-12.87 10.426-23.272 23.272-23.272s23.272 10.402 23.272 23.272v66.956c0 32.094 21.736 59.95 52.852 67.748l112.896 28.206h133.912l112.92-28.206c31.116-7.796 52.876-35.654 52.876-67.748v-43.682h-209.478l0.024 69.818c0 12.846-10.402 23.272-23.272 23.272-12.846 0-23.272-10.402-23.272-23.272l-0.024-69.818h-139.612c-12.87 0-23.272-10.402-23.272-23.272s10.402-23.272 23.272-23.272h418.908c12.87 0 23.272 10.402 23.272 23.272v66.956c0 53.502-36.258 99.908-88.158 112.894z" />
<glyph unicode="&#xe90b;" glyph-name="sports" d="M879.992 496.308c-28.336 0-53.76-12.416-71.36-32h-290.464c101.312 112.928 98.016 287.104-10.528 395.648-112.304 112.288-295.008 112.288-407.296 0-108.544-108.544-111.824-282.704-10.512-395.648h-25.84c-26.464 0-48-21.536-48-48v-32c0-26.464 21.536-48 48-48h20.224c13.088-40.496 24.048-81.504 32.848-122.928l-0.384-0.384 0.608-0.608c17.664-83.504 26.704-168.64 26.704-254.48v-5.6h32v5.616c0 17.664-0.4 35.312-1.136 52.912l58.96-58.96 28.944 0.56 57.248 57.248 57.856-57.856 28.912 0.624 57.232 57.232 57.36-57.376h29.248l57.376 57.376 48.080-48.080c0-1.232-0.080-2.464-0.080-3.696v-5.6h32v5.616c0 128.752 20.224 255.968 59.776 378.384h60.88c17.584-19.584 43.008-32 71.36-32h128v192h-128.016zM134.92 464.308c-0.048 0.048-0.096 0.096-0.16 0.144l169.232 169.232 79.92-79.92c-21.568-24.624-39.184-54.56-52.544-89.456h-196.448zM406.552 531.124l66.688-66.688c-0.048-0.048-0.080-0.080-0.128-0.128h-107.312c10.992 25.744 24.656 48.064 40.752 66.816zM495.752 487.172l-66.848 66.848c43.552 37.248 97.904 53.44 127.232 59.904-7.632-45.824-27.792-89.84-60.384-126.752zM559.448 647.332c-29.376-5.408-98.24-22.608-153.184-70.656l-79.648 79.632 169.136 169.136c44.672-50.608 65.904-114.608 63.696-178.112zM473.128 848.068l-169.136-169.136-79.632 79.632c48.048 54.944 65.248 123.808 70.656 153.184 63.504 2.224 127.52-19.008 178.112-63.68zM179.096 758.596c-43.552-37.248-97.904-53.44-127.232-59.904 7.632 45.84 27.792 89.84 60.384 126.752l66.848-66.848zM134.856 848.068c36.928 32.592 80.944 52.752 126.784 60.384-6.416-29.296-22.544-83.568-59.936-127.232l-66.848 66.848zM48.552 665.284c29.376 5.408 98.24 22.608 153.184 70.656l79.632-79.632-169.136-169.136c-44.656 50.608-65.888 114.608-63.68 178.112zM137.368 336.308l44.896-44.896 22.624 22.624-22.272 22.272h98.752l16-16-49.376-49.376-21.872 21.872-22.624-22.624 21.872-21.872-49.376-49.376-29.536 29.536c-7.952 36.288-17.552 72.256-28.72 107.84h19.632zM369.368 248.308l-49.376-49.376-49.36 49.376 49.376 49.376 49.36-49.376zM297.368 176.308l-49.376-49.376-49.36 49.376 49.376 49.376 49.36-49.376zM319.992 153.684l49.376-49.376-49.376-49.376-49.376 49.376 49.376 49.376zM342.616 176.308l49.376 49.376 49.376-49.376-49.376-49.376-49.376 49.376zM414.632 248.308l49.376 49.376 49.376-49.376-49.376-49.376-49.376 49.376zM536.008 225.684l49.36-49.376-49.376-49.376-49.36 49.376 49.376 49.376zM607.992 153.684l49.376-49.376-49.376-49.376-49.36 49.376 49.36 49.376zM669.096 137.828l-38.464 38.48 49.376 49.376 4-4c-5.936-27.792-10.864-55.744-14.912-83.856zM608.008 198.932l-49.376 49.376 49.376 49.376 49.376-49.376-49.376-49.376zM569.368 336.308l16-16-49.376-49.376-49.376 49.376 16 16h66.752zM391.992 270.932l-65.36 65.376h130.736l-65.376-65.376zM225.368 104.308l-49.376-49.376-4.048 4.048c-3.040 37.952-7.968 75.696-14.416 113.168l67.84-67.84zM249.24-15.82l-2.432-0.064-48.192 48.192 49.376 49.376 49.376-49.376-48.128-48.128zM393.224-15.836l-2.384-0.064-48.208 48.208 49.376 49.376 49.36-49.376-48.144-48.144zM537.368-15.692h-2.752l-48 48 16.704 16.704-22.624 22.624-16.704-16.704-49.36 49.376 49.376 49.376 49.376-49.376-14.848-14.848 22.624-22.624 14.848 14.848 49.36-49.376-48-48zM630.632 32.308l29.696 29.696c-1.536-18.624-2.656-37.312-3.36-56.032l-26.336 26.336zM692.312 258.628l-77.68 77.68h99.632c-8.080-25.728-15.552-51.584-21.952-77.68zM63.992 368.308c-8.816 0-16 7.168-16 16v32c0 8.832 7.184 16 16 16h725.6c-3.568-10.032-5.6-20.768-5.6-32s2.048-21.968 5.6-32h-725.6zM975.992 336.308h-32v32h-32v-32h-32c-35.296 0-64 28.704-64 64s28.704 64 64 64h32v-64h32v64h32v-128z" />
<glyph unicode="&#xe90c;" glyph-name="fashion" d="M966.812 768.618c-5.174 8.474-16.274 11.152-24.806 5.95l-0.146-0.102c-8.284-5.214-10.876-16.25-5.778-24.6 50.238-82.326 66.42-156.414 46.824-214.178l-0.19-0.542c-1.738-5.066-3.586-9.674-5.648-14.086-24.632-52.738-82.47-88.424-162.856-100.482-157.298-23.594-258.624-144.056-305.024-213.764-20.898-31.388-55.778-50.126-93.308-50.126h-15.32c-9.924 0-18-8.074-18-18s8.076-18 18-18h15.32c25.91 0 51.17 6.748 73.524 19.582l-17.218-60.64c-7.56-26.624-32.166-45.218-59.84-45.218h-285.74c-29.092 0-54.008 19.792-60.592 48.128l-11.554 49.73c14.66-7.596 30.972-11.584 47.586-11.584h239.082c9.924 0 18 8.074 18 18s-8.076 18-18 18h-239.084c-29.768 0-56.278 19.826-64.428 48.062l-1.654 7.106c-15.756 87.862 33.758 159.866 143.2 208.308 49.592-38.348 106.186-58.606 163.78-58.606 11.852 0 23.91 0.852 35.842 2.532 13.548 1.908 27.368 4.974 41.076 9.11 48.49 14.628 95.65 42.486 136.382 80.56 82.406 77.036 139.398 194.57 181.066 280.506 16.378 33.776 30.524 62.944 41.654 79.65 0.482 0.726 0.918 1.51 1.324 2.388 6.374 8.976 11.708 16.556 16.774 23.834 8.82 12.67 22.278 20.67 36.006 21.398 8.060 0.45 19.748-1.454 29.732-12.962 13.996-16.128 27.1-32.346 38.948-48.198 5.872-7.86 17.092-9.542 24.938-3.82l0.258 0.176c7.95 5.942 9.584 17.242 3.642 25.192-12.356 16.54-26.014 33.442-40.594 50.24-15.216 17.546-36.124 26.536-58.844 25.322-24.728-1.316-48.516-15.066-63.632-36.782-255.67-367.274-413.752-424.682-572.44-397.87-3.232 0.54-6.546 0.196-9.582-1-79.856-31.4-135.156-73.61-164.362-125.458-22.252-39.506-29.164-83.672-20.544-131.274 0.566-3.12 1.298-6.292 2.144-9.304l28.212-121.41c10.396-44.734 49.732-75.976 95.66-75.976h285.744c43.69 0 82.54 29.356 94.472 71.386l33.902 119.402c31.95 47.482 100.462 132.88 202.032 174.504 24.918 10.21 50.758 17.368 76.8 21.274 58.054 8.708 107.148 29.168 142.674 59.364-4.69-22.354-9.252-45.236-13.59-68.154-28.986-153.2-42.9-278.956-43.562-330.966-0.076-5.958-5.004-10.806-10.984-10.806h-11.732c-6.008 0-10.83 4.752-10.978 10.82-1.766 70.7-9.382 132.13-22.644 182.584-12.87 48.97-31.29 88.47-54.748 117.402-6.25 7.71-17.608 8.9-25.318 2.648-0.57-0.46-1.124-0.98-1.744-1.634-6.172-6.526-6.56-16.708-0.904-23.684 29.38-36.238 65.264-113.922 69.366-278.21 0.642-25.754 21.276-45.926 46.97-45.926h11.732c25.582 0 46.656 20.792 46.98 46.348 0.918 72.080 27.83 278.78 75.96 479.434 29.094 86.324-11.242 180.556-50.218 244.422zM243.626 421.62c80.708-3.096 154.184 18.724 230.11 68.124 60.010 39.046 121.246 95.286 186.666 171.502-57.804-108.27-100.802-155.068-128.744-181.188-28.682-26.812-75.67-61.792-136.642-76.172-52.766-12.444-103.628-6.472-151.39 17.734z" />
<glyph unicode="&#xe90d;" glyph-name="administrative" d="M560.796 176.586h-97.294c-8.964 0-16.216-7.264-16.216-16.216 0-8.954 7.252-16.216 16.216-16.216h97.294c8.95 0 16.216 7.262 16.216 16.216-0.002 8.952-7.266 16.216-16.216 16.216v0zM1020.002 97.132c-0.064 0.654-0.182 1.29-0.316 1.91-0.032 0.148-0.076 0.286-0.108 0.422-0.124 0.498-0.272 0.984-0.444 1.468-0.052 0.148-0.106 0.298-0.156 0.444-0.222 0.56-0.464 1.1-0.74 1.626-0.020 0.032-0.030 0.072-0.052 0.116-0.072 0.148-89.988 169.398-89.988 169.398v441.652c0 8.95-7.264 16.216-16.216 16.216-8.95 0-16.216-7.264-16.216-16.216v-429.478h-767.534v456.346c0 26.826 21.82 48.646 48.646 48.646h643.374c8.95 0 16.216 7.262 16.216 16.216 0 8.952-7.264 16.216-16.216 16.216h-643.372c-44.708 0-81.078-36.368-81.078-81.078v-468.518l-89.914-169.25c-0.094-0.192-0.106-0.222-0.124-0.264-0.276-0.528-0.518-1.068-0.74-1.626-0.052-0.146-0.106-0.294-0.156-0.444-0.17-0.484-0.318-0.97-0.444-1.468-0.032-0.136-0.076-0.272-0.108-0.422-0.136-0.622-0.252-1.256-0.316-1.9-0.052-0.548-0.084-1.086-0.084-1.636v-32.43c0-44.708 36.368-81.078 81.078-81.078h854.016c44.708 0 81.078 36.368 81.078 81.078v32.43c-0.002 0.55-0.034 1.086-0.086 1.624v0zM121.76 252.258h780.48l74.658-140.534h-929.796l74.658 140.534zM939.008 14.43h-854.016c-26.826 0-48.646 21.82-48.646 48.646v16.216h951.31v-16.216c0-26.824-21.822-48.646-48.648-48.646v0zM917.388 881.57h47.338l-387.020-387.018-119.8 119.81c-6.332 6.324-16.604 6.324-22.928 0l-269.562-269.562c-6.334-6.334-6.334-16.608 0-22.932 3.168-3.168 7.316-4.748 11.464-4.748s8.296 1.582 11.464 4.748l258.096 258.086 119.8-119.8c6.334-6.332 16.596-6.332 22.932 0l398.482 398.486v-47.338c0-8.954 7.264-16.216 16.216-16.216s16.216 7.262 16.216 16.216v86.482c0 8.952-7.264 16.216-16.216 16.216h-86.482c-8.952 0-16.216-7.264-16.216-16.216 0-8.954 7.264-16.214 16.216-16.214v0z" />
<glyph unicode="&#xe90e;" glyph-name="part-timers" d="M1002.66 282.84l-33.252-23.89c-18.354-13.186-40.008-20.154-62.626-20.154-59.282 0-107.512 48.23-107.512 107.512s48.23 107.512 107.512 107.512c22.618 0 44.274-6.97 62.626-20.156l33.252-23.888v337.836h-248.746l3.406 11.546c4.032 13.662 6.074 27.904 6.074 42.332 0 82.442-67.070 149.512-149.512 149.512-82.44 0-149.51-67.070-149.514-149.512 0-14.426 2.042-28.668 6.074-42.332l3.404-11.546h-248.744v-258.672l-11.566 3.442c-13.772 4.098-28.134 6.176-42.688 6.176-82.442 0-149.512-67.070-149.512-149.512s67.070-149.514 149.512-149.514c14.554 0 28.918 2.078 42.686 6.176l11.568 3.444v-264.148h325.31l-23.888 33.252c-13.186 18.356-20.154 40.012-20.154 62.628 0 59.282 48.23 107.512 107.512 107.512s107.512-48.23 107.512-107.512c0-22.618-6.968-44.274-20.152-62.626l-23.89-33.254h325.31l-0.002 337.836zM960.662-13h-206.744l3.404 11.544c4.032 13.668 6.072 27.912 6.068 42.334 0 82.444-67.070 149.514-149.512 149.514s-149.512-67.070-149.512-149.512c0-14.43 2.042-28.672 6.074-42.334l3.406-11.546h-206.746v299.028l-33.314-24.118c-18.418-13.332-40.182-20.378-62.94-20.378-59.284 0-107.514 48.23-107.514 107.512 0 59.284 48.23 107.514 107.514 107.514 22.756 0 44.52-7.046 62.94-20.378l33.314-24.118v293.548h283.312l-23.888 33.252c-13.186 18.352-20.156 40.008-20.156 62.628 0 59.284 48.23 107.512 107.512 107.512s107.512-48.228 107.512-107.512c0-22.62-6.968-44.276-20.154-62.628l-23.888-33.252h283.312v-219.276l-11.546 3.41c-13.658 4.030-27.9 6.074-42.33 6.074-82.442 0-149.512-67.070-149.512-149.512s67.070-149.512 149.512-149.512c14.426 0 28.668 2.042 42.33 6.074l11.546 3.406v-219.274z" />
<glyph unicode="&#xe90f;" glyph-name="internships" d="M957.186 596.556v118.092c0 0.376-0.036 0.742-0.056 1.112 0.010 0.27 0.056 0.532 0.056 0.802 0 7.528-4.23 14.42-10.942 17.83l-439.938 223.44c-5.692 2.89-12.42 2.89-18.112 0l-439.938-223.442c-6.712-3.41-10.942-10.3-10.942-17.83s4.23-14.42 10.942-17.83l197.028-100.070v-63.298c0-5.53 2.314-10.73 6.25-14.47-16.394-16.762-31.088-35.248-43.956-55.346-102.26-159.726-55.506-372.866 104.22-475.126 56.57-36.216 120.928-54.424 185.436-54.422 58.53 0.002 117.186 14.996 170.216 45.13 9.602 5.458 12.962 17.664 7.506 27.266-5.456 9.6-17.664 12.964-27.266 7.508-46.884-26.64-98.708-39.894-150.45-39.89-0.922 0-1.844 0.040-2.768 0.048-4.376 12.198-4.044 29.188 9.984 42.47l90.566 85.746c15.314 14.5 20.076 37.288 11.844 56.708l-23.928 56.452c-2.56 6.042-6.21 11.458-10.85 16.1l-9.726 9.726c-3.078 3.076-3.282 6.658-3.128 8.518s0.936 5.364 4.472 7.896l43.97 31.53c3.402 2.44 7.954 2.686 11.6 0.632l23.216-13.088c18.478-10.414 41.736-8.172 57.88 5.58 25.254 21.51 36.11 53.698 29.042 86.11-7.070 32.412-30.346 57.156-62.264 66.192l-17.336 4.91c-4.12 1.166-6.048 4.13-6.832 5.792-0.642 1.362-1.466 3.876-0.792 6.89 8.328 11.138 9.66 26.098 3.056 38.726l-20.3 38.804c6.658 0.692 13.382 1.072 20.156 1.072 7.74 0 15.408-0.462 22.988-1.358 135.168-91.802 173.5-277.26 85.148-415.264-5.956-9.3-3.242-21.666 6.060-27.622 3.338-2.138 7.072-3.16 10.762-3.16 6.59 0 13.042 3.256 16.86 9.216 49.036 76.592 65.658 167.762 46.816 256.722-13.768 64.99-45.324 123.366-90.882 169.646 4.004 3.746 6.36 8.994 6.36 14.576v63.074l167.976 85.316v-87.42c-17.358-7.698-29.5-25.084-29.5-45.262v-118.334c0-11.044 8.952-19.998 19.998-19.998h59c11.044 0 19.998 8.952 19.998 19.998v118.334c0 20.182-12.142 37.566-29.5 45.266zM241.26 443.986c3.38 5.28 6.918 10.416 10.578 15.44l-4.126-18.142c-4.428-19.686 2.432-39.964 17.9-52.92l27.804-23.288c4.92-4.122 6.318-10.992 3.396-16.708l-25.17-49.25c-8.57-16.772-7.818-36.372 2.012-52.438 9.832-16.066 26.944-25.656 45.78-25.656 6.78 0 10.328-4.432 11.54-6.338s3.72-7 0.844-13.14l-33.68-71.896c-6.364-13.584-6.738-29.332-1.026-43.202l20.058-48.708c0.476-1.154 0.88-2.29 1.276-3.424-129.038 93.748-164.282 273.624-77.186 409.67zM608.704 476.526c-0.97-1.266-1.788-2.646-2.434-4.11-5.93-13.458-5.736-28.808 0.528-42.114 6.264-13.304 17.97-23.232 32.12-27.238l17.336-4.91c17.472-4.948 30.214-18.494 34.084-36.234s-2.074-35.364-15.898-47.138c-3.436-2.924-8.38-3.4-12.308-1.186l-23.216 13.088c-17.146 9.664-38.554 8.496-54.544-2.97l-43.972-31.53c-12.144-8.706-19.808-22.244-21.028-37.136s4.144-29.496 14.708-40.062l9.726-9.726c0.988-0.986 1.764-2.138 2.308-3.424l23.928-56.456c1.75-4.13 0.738-8.976-2.518-12.060l-90.566-85.744c-19.010-17.998-27.558-43.378-24.262-68.238-31.594 4.698-62.592 14.408-91.814 29.114 1.702 14.766-0.53 29.448-6.734 44.514l-20.058 48.712c-1.456 3.534-1.36 7.546 0.262 11.006l33.68 71.896c7.832 16.714 6.592 35.99-3.312 51.564-9.902 15.574-26.834 24.872-45.29 24.872-6.916 0-10.46 4.572-11.664 6.538s-3.662 7.204-0.514 13.362l25.17 49.25c11.464 22.43 5.984 49.396-13.328 65.568l-27.804 23.288c-3.944 3.302-5.692 8.468-4.574 13.438l19.054 83.798c6.544 5.302 13.316 10.348 20.328 15.118 7.846 0.96 15.786 1.452 23.802 1.452 50.066 0 97.57-19.12 133.756-53.832 3.87-3.712 8.856-5.568 13.844-5.568s9.974 1.856 13.844 5.568c21.072 20.218 46.002 35.098 73.024 44.042l24.336-46.512zM749.216 643.518v73.568c0 8.61-5.512 16.254-13.682 18.974-3.018 1.004-74.952 24.706-166.858 34.23-10.992 1.136-20.812-6.844-21.952-17.83s6.844-20.812 17.83-21.952c64.68-6.704 120.024-21.12 144.668-28.242v-138.366c-20.732 5.93-42.2 8.92-64.116 8.92-54.244 0-105.99-18.586-147.6-52.684-41.608 34.098-93.354 52.684-147.6 52.684-22.1 0-43.736-3.042-64.624-9.068v138.522c24.936 7.216 81.328 21.906 147.306 28.502 10.99 1.098 19.008 10.898 17.908 21.886-1.098 10.99-10.908 19.016-21.886 17.908-93.204-9.322-166.56-33.49-169.638-34.514-8.168-2.72-13.682-10.364-13.682-18.974v-73.568l-143.814 73.042 395.78 201.018 395.778-201.014-143.818-73.042zM946.692 452.958h-19.006v98.336c0 5.152 4.352 9.502 9.502 9.502 5.152 0 9.502-4.352 9.502-9.502v-98.336h0.002z" />
<glyph unicode="&#xe910;" glyph-name="cogs" d="M324.266 465.066c-93.866 0-170.666 76.8-170.666 170.666s76.8 170.666 170.666 170.666 170.666-76.8 170.666-170.666-76.798-170.666-170.666-170.666zM324.266 772.266c-75.094 0-136.534-61.44-136.534-136.534s61.44-136.534 136.534-136.534 136.534 61.44 136.534 136.534c0 75.094-61.44 136.534-136.534 136.534zM819.2-64h-102.4c-10.24 0-17.066 6.826-17.066 17.066v35.84c0 6.826-3.414 11.946-10.24 15.36h-1.706c-5.12 1.706-11.946 0-15.36-3.414l-25.6-25.6c-6.826-6.826-17.066-6.826-23.894 0l-71.68 71.68c-6.826 6.826-6.826 17.066 0 23.894l25.6 25.6c5.12 5.12 5.12 11.946 3.414 17.066-3.414 6.826-8.534 10.24-15.36 10.24h-35.84c-10.24 0-17.066 6.826-17.066 17.066v102.4c0 10.24 6.826 17.066 17.066 17.066h35.84c6.826 0 11.946 3.414 15.36 10.24v1.706c1.706 5.12 0 11.946-3.414 15.36l-25.6 25.6c-6.826 6.826-6.826 17.066 0 23.894l71.68 71.68c6.828 6.826 17.066 6.826 23.894 0l25.6-25.6c5.12-5.12 11.946-5.12 17.066-3.414 6.826 3.414 10.24 8.534 10.24 15.36v35.84c0 10.24 6.826 17.066 17.066 17.066h102.4c10.24 0 17.066-6.826 17.066-17.066v-35.84c0-6.826 3.414-11.946 10.24-15.36h1.706c5.12-1.706 11.946 0 15.36 3.414l25.6 25.6c6.826 6.826 17.066 6.826 23.894 0l71.68-71.68c6.826-6.826 6.826-17.066 0-23.894l-25.6-25.6c-5.12-5.12-5.12-11.946-3.414-17.066 3.414-6.826 8.534-10.24 15.36-10.24h35.84c10.24 0 17.066-6.826 17.066-17.066v-102.4c0-10.24-6.826-17.066-17.066-17.066h-35.84c-6.826 0-11.946-3.414-15.36-10.24v-1.706c-1.706-5.12 0-11.946 3.414-15.36l25.6-25.6c6.826-6.826 6.826-17.066 0-23.894l-71.68-71.68c-6.826-6.826-17.066-6.826-23.894 0l-25.6 25.6c-5.12 5.12-11.946 5.12-17.066 3.414-6.826-3.414-10.24-8.534-10.24-15.36v-35.84c0-10.24-6.826-17.066-17.066-17.066zM733.866-29.866h68.266v18.774c0 20.48 11.946 39.254 30.72 46.080 18.772 8.534 40.96 3.414 54.614-10.24l11.946-11.946 47.786 47.786-10.24 11.946c-13.654 13.654-18.774 35.84-10.24 54.614s25.6 30.72 46.080 30.72h17.066v68.266h-18.774c-20.48 0-39.254 11.946-46.080 30.72-8.534 18.774-3.414 40.96 10.24 54.614l11.946 11.946-47.786 47.786-11.946-10.24c-13.654-13.654-35.84-18.774-54.614-10.24s-30.72 25.6-30.72 46.080v17.066h-68.266v-18.774c0-20.48-11.946-39.254-30.72-46.080-18.772-8.534-40.96-3.414-54.614 10.24l-11.946 11.946-47.786-47.786 13.654-13.654c13.654-13.654 18.774-35.84 10.24-54.614s-25.6-30.72-46.080-30.72h-20.48v-68.266h18.774c20.48 0 39.254-11.946 46.080-30.72 8.534-18.774 3.414-40.96-10.24-54.614l-11.946-11.946 47.786-47.786 13.654 13.654c13.654 13.654 35.84 18.774 54.614 10.24 18.772-8.534 30.72-25.6 30.72-46.080v-18.774h-1.708zM768 72.534c-66.56 0-119.466 52.906-119.466 119.466s52.906 119.466 119.466 119.466 119.466-52.906 119.466-119.466-52.906-119.466-119.466-119.466zM768 277.334c-47.786 0-85.334-37.546-85.334-85.334s37.546-85.334 85.334-85.334 85.334 37.546 85.334 85.334-37.548 85.334-85.334 85.334zM375.466 311.466h-102.4c-10.24 0-17.066 6.826-17.066 17.066v3.414c0 22.186-13.654 42.666-35.84 51.2-22.188 10.24-47.786 5.12-63.146-10.24l-3.414-3.414c-6.826-6.826-17.066-6.826-23.894 0l-71.68 71.68c-6.826 6.826-6.826 17.066 0 23.894l3.414 3.414c15.36 15.36 20.48 39.254 10.24 61.44-8.534 22.186-29.014 35.84-51.2 35.84h-3.414c-10.24 0-17.066 6.826-17.066 17.066v102.4c0 10.24 6.826 17.066 17.066 17.066h3.414c22.186 0 42.666 13.654 51.2 35.84 10.24 22.186 5.12 47.786-10.24 63.146l-3.414 3.414c-6.826 6.826-6.826 17.066 0 23.894l71.68 71.68c6.826 6.826 17.066 6.826 23.894 0l3.414-3.414c15.36-15.36 39.254-20.48 61.44-10.24 22.188 8.534 35.84 29.014 35.84 51.2v5.12c0 10.24 6.826 17.066 17.066 17.066h102.4c10.24 0 17.066-6.826 17.066-17.066v-3.414c0-22.186 13.654-42.666 35.84-51.2 22.188-10.24 47.786-5.12 63.146 10.24l3.414 3.414c6.826 6.826 17.066 6.826 23.894 0l71.68-71.68c6.826-6.826 6.826-17.066 0-23.894l-3.414-3.414c-15.36-15.36-20.48-39.254-10.24-61.44 8.534-22.186 29.014-35.84 51.2-35.84h5.12c10.24 0 17.066-6.826 17.066-17.066v-102.4c0-10.24-6.826-17.066-17.066-17.066h-3.414c-22.186 0-42.666-13.654-51.2-35.84-10.24-22.186-5.12-47.786 10.24-63.146l3.414-3.414c6.826-6.826 6.826-17.066 0-23.894l-71.68-71.68c-6.826-6.826-17.066-6.826-23.894 0l-3.414 3.414c-15.36 15.36-39.254 20.48-61.44 10.24-22.188-8.534-35.84-29.014-35.84-51.2v-5.12c-1.704-10.238-8.532-17.066-18.772-17.066zM288.426 345.6h69.974c5.12 30.72 25.6 56.32 56.32 68.266 30.72 13.654 64.854 8.534 88.746-8.534l49.494 49.494c-18.774 25.6-22.186 58.026-10.24 88.746s39.252 51.2 69.974 56.32v69.974c-30.72 5.12-56.32 25.6-68.266 56.32-13.654 30.72-8.534 64.854 8.534 88.746l-49.494 49.494c-25.6-18.774-58.026-22.186-88.746-10.24s-51.2 39.254-56.32 69.974h-69.974c-5.12-30.72-25.6-56.32-56.32-68.266-30.72-13.654-64.854-8.534-88.746 8.534l-49.494-47.786c18.774-25.6 22.186-58.026 10.24-88.746s-39.252-51.2-69.974-56.32v-69.974c30.72-5.12 56.32-25.6 68.266-56.32 13.654-30.72 8.534-64.854-8.534-88.746l49.494-49.494c25.6 18.774 58.026 22.186 88.746 10.24 30.72-15.362 52.908-40.962 56.32-71.682z" />
<glyph unicode="&#xf002;" glyph-name="search" horiz-adv-x="951" d="M658.286 475.428c0 141.143-114.857 256-256 256s-256-114.857-256-256 114.857-256 256-256 256 114.857 256 256zM950.857 0c0-40-33.143-73.143-73.143-73.143-19.429 0-38.286 8-51.429 21.714l-196 195.429c-66.857-46.286-146.857-70.857-228-70.857-222.286 0-402.286 180-402.286 402.286s180 402.286 402.286 402.286 402.286-180 402.286-402.286c0-81.143-24.571-161.143-70.857-228l196-196c13.143-13.143 21.143-32 21.143-51.429z" />
<glyph unicode="&#xf004;" glyph-name="heart" d="M512 0c-9.143 0-18.286 3.429-25.143 10.286l-356.571 344c-4.571 4-130.286 118.857-130.286 256 0 167.429 102.286 267.429 273.143 267.429 100 0 193.714-78.857 238.857-123.429 45.143 44.571 138.857 123.429 238.857 123.429 170.857 0 273.143-100 273.143-267.429 0-137.143-125.714-252-130.857-257.143l-356-342.857c-6.857-6.857-16-10.286-25.143-10.286z" />
<glyph unicode="&#xf005;" glyph-name="star" horiz-adv-x="951" d="M950.857 581.143c0-10.286-7.429-20-14.857-27.429l-207.429-202.286 49.143-285.714c0.571-4 0.571-7.429 0.571-11.429 0-14.857-6.857-28.571-23.429-28.571-8 0-16 2.857-22.857 6.857l-256.571 134.857-256.571-134.857c-7.429-4-14.857-6.857-22.857-6.857-16.571 0-24 13.714-24 28.571 0 4 0.571 7.429 1.143 11.429l49.143 285.714-208 202.286c-6.857 7.429-14.286 17.143-14.286 27.429 0 17.143 17.714 24 32 26.286l286.857 41.714 128.571 260c5.143 10.857 14.857 23.429 28 23.429s22.857-12.571 28-23.429l128.571-260 286.857-41.714c13.714-2.286 32-9.143 32-26.286z" />
<glyph unicode="&#xf00c;" glyph-name="check" d="M954.857 627.428c0-14.286-5.714-28.571-16-38.857l-491.429-491.429c-10.286-10.286-24.571-16-38.857-16s-28.571 5.714-38.857 16l-284.571 284.571c-10.286 10.286-16 24.571-16 38.857s5.714 28.571 16 38.857l77.714 77.714c10.286 10.286 24.571 16 38.857 16s28.571-5.714 38.857-16l168-168.571 374.857 375.429c10.286 10.286 24.571 16 38.857 16s28.571-5.714 38.857-16l77.714-77.714c10.286-10.286 16-24.571 16-38.857z" />
<glyph unicode="&#xf00d;" glyph-name="close" horiz-adv-x="805" d="M741.714 195.428c0-14.286-5.714-28.571-16-38.857l-77.714-77.714c-10.286-10.286-24.571-16-38.857-16s-28.571 5.714-38.857 16l-168 168-168-168c-10.286-10.286-24.571-16-38.857-16s-28.571 5.714-38.857 16l-77.714 77.714c-10.286 10.286-16 24.571-16 38.857s5.714 28.571 16 38.857l168 168-168 168c-10.286 10.286-16 24.571-16 38.857s5.714 28.571 16 38.857l77.714 77.714c10.286 10.286 24.571 16 38.857 16s28.571-5.714 38.857-16l168-168 168 168c10.286 10.286 24.571 16 38.857 16s28.571-5.714 38.857-16l77.714-77.714c10.286-10.286 16-24.571 16-38.857s-5.714-28.571-16-38.857l-168-168 168-168c10.286-10.286 16-24.571 16-38.857z" />
<glyph unicode="&#xf04b;" glyph-name="play" horiz-adv-x="809" d="M790.857 421.143l-758.857-421.714c-17.714-9.714-32-1.143-32 18.857v841.143c0 20 14.286 28.571 32 18.857l758.857-421.714c17.714-9.714 17.714-25.714 0-35.429z" />
<glyph unicode="&#xf064;" glyph-name="share" d="M1024 585.143c0-9.714-4-18.857-10.857-25.714l-292.571-292.571c-6.857-6.857-16-10.857-25.714-10.857-20 0-36.571 16.571-36.571 36.571v146.286h-128c-246.286 0-408-47.429-408-320 0-23.429 1.143-46.857 2.857-70.286 0.571-9.143 2.857-19.429 2.857-28.571 0-10.857-6.857-20-18.286-20-8 0-12 4-16 9.714-8.571 12-14.857 30.286-21.143 43.429-32.571 73.143-72.571 177.714-72.571 257.714 0 64 6.286 129.714 30.286 190.286 79.429 197.143 312.571 230.286 500 230.286h128v146.286c0 20 16.571 36.571 36.571 36.571 9.714 0 18.857-4 25.714-10.857l292.571-292.571c6.857-6.857 10.857-16 10.857-25.714z" />
<glyph unicode="&#xf067;" glyph-name="plus" horiz-adv-x="805" d="M804.571 530.286v-109.714c0-30.286-24.571-54.857-54.857-54.857h-237.714v-237.714c0-30.286-24.571-54.857-54.857-54.857h-109.714c-30.286 0-54.857 24.571-54.857 54.857v237.714h-237.714c-30.286 0-54.857 24.571-54.857 54.857v109.714c0 30.286 24.571 54.857 54.857 54.857h237.714v237.714c0 30.286 24.571 54.857 54.857 54.857h109.714c30.286 0 54.857-24.571 54.857-54.857v-237.714h237.714c30.286 0 54.857-24.571 54.857-54.857z" />
<glyph unicode="&#xf075;" glyph-name="comment" d="M1024 438.857c0-202.286-229.143-365.714-512-365.714-28 0-56 1.714-82.857 4.571-74.857-66.286-164-113.143-262.857-138.286-20.571-5.714-42.857-9.714-65.143-12.571-12.571-1.143-24.571 8-27.429 21.714v0.571c-2.857 14.286 6.857 22.857 15.429 33.143 36 40.571 77.143 74.857 104 170.286-117.714 66.857-193.143 170.286-193.143 286.286 0 201.714 229.143 365.714 512 365.714s512-163.429 512-365.714z" />
<glyph unicode="&#xf099;" glyph-name="twitter" horiz-adv-x="951" d="M925.714 717.714c-25.143-36.571-56.571-69.143-92.571-95.429 0.571-8 0.571-16 0.571-24 0-244-185.714-525.143-525.143-525.143-104.571 0-201.714 30.286-283.429 82.857 14.857-1.714 29.143-2.286 44.571-2.286 86.286 0 165.714 29.143 229.143 78.857-81.143 1.714-149.143 54.857-172.571 128 11.429-1.714 22.857-2.857 34.857-2.857 16.571 0 33.143 2.286 48.571 6.286-84.571 17.143-148 91.429-148 181.143v2.286c24.571-13.714 53.143-22.286 83.429-23.429-49.714 33.143-82.286 89.714-82.286 153.714 0 34.286 9.143 65.714 25.143 93.143 90.857-112 227.429-185.143 380.571-193.143-2.857 13.714-4.571 28-4.571 42.286 0 101.714 82.286 184.571 184.571 184.571 53.143 0 101.143-22.286 134.857-58.286 41.714 8 81.714 23.429 117.143 44.571-13.714-42.857-42.857-78.857-81.143-101.714 37.143 4 73.143 14.286 106.286 28.571z" />
<glyph unicode="&#xf09a;" glyph-name="facebook" horiz-adv-x="602" d="M548 944v-150.857h-89.714c-70.286 0-83.429-33.714-83.429-82.286v-108h167.429l-22.286-169.143h-145.143v-433.714h-174.857v433.714h-145.714v169.143h145.714v124.571c0 144.571 88.571 223.429 217.714 223.429 61.714 0 114.857-4.571 130.286-6.857z" />
<glyph unicode="&#xf0d7;" glyph-name="caret-down" horiz-adv-x="585" d="M585.143 548.571c0-9.714-4-18.857-10.857-25.714l-256-256c-6.857-6.857-16-10.857-25.714-10.857s-18.857 4-25.714 10.857l-256 256c-6.857 6.857-10.857 16-10.857 25.714 0 20 16.571 36.571 36.571 36.571h512c20 0 36.571-16.571 36.571-36.571z" />
<glyph unicode="&#xf0e1;" glyph-name="linkedin" horiz-adv-x="878" d="M199.429 593.714v-566.286h-188.571v566.286h188.571zM211.429 768.571c0.571-54.286-40.571-97.714-106.286-97.714v0h-1.143c-63.429 0-104 43.429-104 97.714 0 55.429 42.286 97.714 106.286 97.714 64.571 0 104.571-42.286 105.143-97.714zM877.714 352v-324.571h-188v302.857c0 76-27.429 128-95.429 128-52 0-82.857-34.857-96.571-68.571-4.571-12.571-6.286-29.143-6.286-46.286v-316h-188c2.286 513.143 0 566.286 0 566.286h188v-82.286h-1.143c24.571 38.857 69.143 95.429 170.857 95.429 124 0 216.571-81.143 216.571-254.857z" />
<glyph unicode="&#xf0f3;" glyph-name="bell" d="M521.143-18.286c0 5.143-4 9.143-9.143 9.143-45.143 0-82.286 37.143-82.286 82.286 0 5.143-4 9.143-9.143 9.143s-9.143-4-9.143-9.143c0-55.429 45.143-100.571 100.571-100.571 5.143 0 9.143 4 9.143 9.143zM987.429 146.286c0-40-33.143-73.143-73.143-73.143h-256c0-80.571-65.714-146.286-146.286-146.286s-146.286 65.714-146.286 146.286h-256c-40 0-73.143 33.143-73.143 73.143 84.571 71.429 182.857 199.429 182.857 475.429 0 109.714 90.857 229.714 242.286 252-2.857 6.857-4.571 14.286-4.571 22.286 0 30.286 24.571 54.857 54.857 54.857s54.857-24.571 54.857-54.857c0-8-1.714-15.429-4.571-22.286 151.429-22.286 242.286-142.286 242.286-252 0-276 98.286-404 182.857-475.429z" />
<glyph unicode="&#xf104;" glyph-name="angle-left" horiz-adv-x="384" d="M358.286 640c0-4.571-2.286-9.714-5.714-13.143l-224.571-224.571 224.571-224.571c3.429-3.429 5.714-8.571 5.714-13.143s-2.286-9.714-5.714-13.143l-28.571-28.571c-3.429-3.429-8.571-5.714-13.143-5.714s-9.714 2.286-13.143 5.714l-266.286 266.286c-3.429 3.429-5.714 8.571-5.714 13.143s2.286 9.714 5.714 13.143l266.286 266.286c3.429 3.429 8.571 5.714 13.143 5.714s9.714-2.286 13.143-5.714l28.571-28.571c3.429-3.429 5.714-8 5.714-13.143z" />
<glyph unicode="&#xf105;" glyph-name="angle-right" horiz-adv-x="347" d="M340 402.286c0-4.571-2.286-9.714-5.714-13.143l-266.286-266.286c-3.429-3.429-8.571-5.714-13.143-5.714s-9.714 2.286-13.143 5.714l-28.571 28.571c-3.429 3.429-5.714 8-5.714 13.143 0 4.571 2.286 9.714 5.714 13.143l224.571 224.571-224.571 224.571c-3.429 3.429-5.714 8.571-5.714 13.143s2.286 9.714 5.714 13.143l28.571 28.571c3.429 3.429 8.571 5.714 13.143 5.714s9.714-2.286 13.143-5.714l266.286-266.286c3.429-3.429 5.714-8.571 5.714-13.143z" />
<glyph unicode="&#xf107;" glyph-name="angle-down" horiz-adv-x="658" d="M614.286 530.286c0-4.571-2.286-9.714-5.714-13.143l-266.286-266.286c-3.429-3.429-8.571-5.714-13.143-5.714s-9.714 2.286-13.143 5.714l-266.286 266.286c-3.429 3.429-5.714 8.571-5.714 13.143s2.286 9.714 5.714 13.143l28.571 28.571c3.429 3.429 8 5.714 13.143 5.714 4.571 0 9.714-2.286 13.143-5.714l224.571-224.571 224.571 224.571c3.429 3.429 8.571 5.714 13.143 5.714s9.714-2.286 13.143-5.714l28.571-28.571c3.429-3.429 5.714-8.571 5.714-13.143z" />
<glyph unicode="&#xf16d;" glyph-name="instagram" horiz-adv-x="878" d="M585.143 438.857c0 80.571-65.714 146.286-146.286 146.286s-146.286-65.714-146.286-146.286 65.714-146.286 146.286-146.286 146.286 65.714 146.286 146.286zM664 438.857c0-124.571-100.571-225.143-225.143-225.143s-225.143 100.571-225.143 225.143 100.571 225.143 225.143 225.143 225.143-100.571 225.143-225.143zM725.714 673.143c0-29.143-23.429-52.571-52.571-52.571s-52.571 23.429-52.571 52.571 23.429 52.571 52.571 52.571 52.571-23.429 52.571-52.571zM438.857 798.857c-64 0-201.143 5.143-258.857-17.714-20-8-34.857-17.714-50.286-33.143s-25.143-30.286-33.143-50.286c-22.857-57.714-17.714-194.857-17.714-258.857s-5.143-201.143 17.714-258.857c8-20 17.714-34.857 33.143-50.286s30.286-25.143 50.286-33.143c57.714-22.857 194.857-17.714 258.857-17.714s201.143-5.143 258.857 17.714c20 8 34.857 17.714 50.286 33.143s25.143 30.286 33.143 50.286c22.857 57.714 17.714 194.857 17.714 258.857s5.143 201.143-17.714 258.857c-8 20-17.714 34.857-33.143 50.286s-30.286 25.143-50.286 33.143c-57.714 22.857-194.857 17.714-258.857 17.714zM877.714 438.857c0-60.571 0.571-120.571-2.857-181.143-3.429-70.286-19.429-132.571-70.857-184s-113.714-67.429-184-70.857c-60.571-3.429-120.571-2.857-181.143-2.857s-120.571-0.571-181.143 2.857c-70.286 3.429-132.571 19.429-184 70.857s-67.429 113.714-70.857 184c-3.429 60.571-2.857 120.571-2.857 181.143s-0.571 120.571 2.857 181.143c3.429 70.286 19.429 132.571 70.857 184s113.714 67.429 184 70.857c60.571 3.429 120.571 2.857 181.143 2.857s120.571 0.571 181.143-2.857c70.286-3.429 132.571-19.429 184-70.857s67.429-113.714 70.857-184c3.429-60.571 2.857-120.571 2.857-181.143z" />
</font>
</defs>
</svg>
